<svg id="Capa_1" enable-background="new 0 0 512 512" height="512" viewBox="0 0 512 512" width="512" xmlns="http://www.w3.org/2000/svg"><g><g><path d="m37.463 166.504h437.073v312.195h-437.073z" fill="#d0e2e7"/></g><g><path d="m37.463 166.504v60.358c13.626 0 26.226-4.468 36.423-12.008 10.197 7.54 22.796 12.008 36.423 12.008s26.226-4.468 36.423-12.008c10.197 7.54 22.796 12.008 36.423 12.008 13.626 0 26.226-4.468 36.423-12.008 10.197 7.54 22.796 12.008 36.423 12.008s26.226-4.468 36.423-12.008c10.197 7.54 22.796 12.008 36.423 12.008s26.226-4.468 36.423-12.008c10.197 7.54 22.796 12.008 36.423 12.008 13.626 0 26.226-4.468 36.423-12.008 10.197 7.54 22.796 12.008 36.423 12.008v-60.358z" fill="#b4d0d5"/></g><g><g><g><path d="m219.577 145.691v19.772c0 20.116 16.307 36.423 36.423 36.423s36.423-16.307 36.423-36.423v-19.772z" fill="#f6e781"/></g><g><path d="m280.976 0h-49.952l-11.447 145.691h72.846z" fill="#f9efaf"/></g><g><path d="m146.732 145.691v19.772c0 20.116-16.307 36.423-36.423 36.423s-36.423-16.307-36.423-36.423v-19.772z" fill="#f6e781"/></g><g><path d="m219.577 145.691v19.772c0 20.116-16.307 36.423-36.423 36.423s-36.423-16.307-36.423-36.423v-19.772z" fill="#2b4d66"/></g><g><path d="m178.992 0h52.032l-11.447 145.691h-72.845z" fill="#365e7d"/></g><g><path d="m126.959 0h52.033l-32.26 145.691h-72.846z" fill="#f9efaf"/></g><g><path d="m365.268 145.691v19.772c0 20.116 16.307 36.423 36.423 36.423s36.423-16.307 36.423-36.423v-19.772z" fill="#f6e781"/></g><g><path d="m292.423 145.691v19.772c0 20.116 16.307 36.423 36.423 36.423s36.423-16.307 36.423-36.423v-19.772z" fill="#2b4d66"/></g><g><path d="m87.708 0c-7.841 0-15.016 4.406-18.562 11.399l-64.763 127.702c-1.067 2.103-1.88 4.316-2.44 6.59h71.944l53.072-145.691z" fill="#365e7d"/></g><g><path d="m333.008 0h-52.032l11.447 145.691h72.845z" fill="#365e7d"/></g><g><path d="m385.041 0h-52.033l32.26 145.691h72.846z" fill="#f9efaf"/></g></g></g><g><path d="m70.764 270.464v208.235h124.878v-208.235c0-5.69-4.612-10.302-10.302-10.302h-104.274c-5.689.001-10.302 4.613-10.302 10.302z" fill="#90d8f9"/></g><g><path d="m228.943 270.464v135.389h212.293v-135.389c0-5.69-4.612-10.302-10.302-10.302h-191.689c-5.69.001-10.302 4.613-10.302 10.302z" fill="#90d8f9"/></g><g><path d="m416.26 260.163v145.691h24.976v-135.39c0-5.69-4.612-10.302-10.302-10.302h-14.674z" fill="#75cef9"/></g><g><path d="m228.943 405.854v22.999c0 5.69 4.612 10.302 10.302 10.302h191.689c5.69 0 10.302-4.612 10.302-10.302v-22.999z" fill="#c6865c"/></g><g><path d="m416.26 405.854v33.301h14.674c5.69 0 10.302-4.612 10.302-10.302v-22.999z" fill="#c17d4f"/></g><g><path d="m10.407 512h491.187c5.747 0 10.406-4.659 10.406-10.406v-12.488c0-5.747-4.659-10.406-10.406-10.406h-491.187c-5.748-.001-10.407 4.658-10.407 10.406v12.488c0 5.747 4.659 10.406 10.407 10.406z" fill="#365e7d"/></g><g><path d="m501.594 478.699h-31.22c5.747 0 10.406 4.659 10.406 10.406v12.488c0 5.747-4.659 10.406-10.406 10.406h31.22c5.747 0 10.406-4.659 10.406-10.406v-12.488c0-5.747-4.659-10.406-10.406-10.406z" fill="#2b4d66"/></g><g><g><path d="m344.287 306.408-7.637 8.909h-19.772c-17.242 0-31.22 13.977-31.22 31.22v8.43c0 5.69 4.612 10.302 10.302 10.302h78.258c5.69 0 10.302-4.612 10.302-10.302v-32.75c0-4.175-2.519-7.936-6.379-9.526l-22.11-9.104c-4.113-1.694-8.849-.557-11.744 2.821z" fill="#c6865c"/></g></g><g><path d="m162.342 393.808c-4.267 0-7.726-3.459-7.726-7.726v-41.626c0-4.268 3.459-7.726 7.726-7.726s7.726 3.459 7.726 7.726v41.626c0 4.267-3.459 7.726-7.726 7.726z" fill="#ffe07d"/></g><g><path d="m1.041 153.08v11.664c0 20.423 16.714 37.526 37.133 37.135 19.788-.379 35.712-16.538 35.712-36.416v-19.772h-71.944c-.593 2.41-.901 4.89-.901 7.389z" fill="#2b4d66"/></g><g><path d="m424.292 0c7.841 0 15.016 4.406 18.562 11.399l64.763 127.702c1.067 2.103 1.88 4.316 2.44 6.59h-71.944l-53.072-145.691z" fill="#365e7d"/></g><g><path d="m510.959 153.08v11.664c0 20.423-16.714 37.526-37.133 37.135-19.788-.379-35.712-16.538-35.712-36.416v-19.772h71.944c.593 2.41.901 4.89.901 7.389z" fill="#2b4d66"/></g></g></svg>